<?xml version="1.0" standalone="no"?>
<!DOCTYPE svg PUBLIC "-//W3C//DTD SVG 20010904//EN"
 "http://www.w3.org/TR/2001/REC-SVG-20010904/DTD/svg10.dtd">
<svg version="1.0" xmlns="http://www.w3.org/2000/svg"
 width="340.000000pt" height="340.000000pt" viewBox="0 0 340.000000 340.000000"
 preserveAspectRatio="xMidYMid meet">
<metadata>
Created by potrace 1.11, written by Peter Selinger 2001-2013
</metadata>
<g transform="translate(0.000000,340.000000) scale(0.100000,-0.100000)"
fill="#000000" stroke="none">
<path d="M43 2862 c-24 -2 -43 -5 -43 -7 0 -1 13 -30 30 -63 16 -34 30 -63 30
-67 0 -3 18 -41 39 -85 22 -44 37 -80 34 -80 -3 0 2 -9 12 -20 10 -11 15 -20
12 -20 -4 0 5 -21 20 -47 15 -27 26 -49 25 -50 -1 -2 11 -31 27 -65 16 -35 41
-90 56 -123 15 -33 37 -82 50 -110 13 -27 35 -76 49 -107 14 -32 41 -91 60
-130 31 -67 53 -114 109 -238 11 -25 20 -48 19 -52 -1 -5 2 -8 6 -8 4 0 14
-17 21 -37 8 -21 26 -64 41 -95 15 -31 25 -59 22 -62 -3 -4 0 -6 6 -6 7 0 12
-4 12 -9 0 -5 15 -42 34 -83 18 -40 56 -122 84 -183 27 -60 62 -137 77 -170
16 -33 27 -60 26 -60 -2 0 56 -113 80 -155 20 -36 69 -101 102 -133 62 -64 43
-62 624 -62 l528 1 41 24 c49 28 125 123 173 216 50 94 131 276 131 292 0 6 5
12 10 12 6 0 10 5 10 11 0 10 14 43 80 184 21 44 47 103 60 130 12 28 34 75
48 105 14 30 27 61 28 69 2 7 7 18 13 24 6 6 11 19 11 28 0 10 3 19 8 21 8 4
134 278 135 296 0 6 5 12 10 12 6 0 7 3 4 7 -4 3 0 15 10 25 9 10 13 18 10 18
-3 0 18 52 48 115 30 64 54 118 55 120 0 3 14 34 30 70 17 36 30 68 30 70 0 3
13 33 29 67 16 35 43 97 61 138 17 41 38 89 45 105 8 17 27 60 44 98 l30 67
-127 1 c-722 3 -778 2 -809 -14 -83 -43 -159 -138 -230 -287 -57 -119 -67
-142 -65 -152 1 -5 -2 -8 -8 -8 -5 0 -10 -7 -10 -15 0 -8 -4 -23 -9 -33 -8
-14 -16 -34 -26 -62 -1 -3 -12 -27 -25 -55 -13 -27 -25 -52 -25 -55 0 -3 -11
-27 -23 -54 -12 -27 -22 -50 -22 -52 0 -2 -9 -23 -19 -47 -43 -94 -71 -158
-71 -161 0 -2 -14 -35 -32 -73 -17 -37 -32 -70 -33 -73 -5 -13 -21 -54 -60
-145 -24 -55 -49 -115 -56 -132 -24 -58 -58 -54 -85 10 -10 23 -18 45 -18 48
-1 3 -13 33 -28 65 -55 122 -76 170 -89 207 -7 20 -17 37 -21 37 -4 0 -7 3 -6
8 2 6 -36 98 -114 272 -16 36 -36 79 -43 95 -7 17 -34 77 -60 135 -44 99 -66
148 -70 160 -2 6 -32 71 -70 155 -16 33 -28 63 -27 66 2 9 -95 109 -106 109
-5 0 -15 6 -21 14 -28 33 -95 38 -498 40 -219 0 -417 0 -440 -2z"/>
</g>
</svg>
